<svg width="226" height="188" viewBox="0 0 226 188" fill="none" xmlns="http://www.w3.org/2000/svg">
<mask id="mask0" mask-type="alpha" maskUnits="userSpaceOnUse" x="0" y="-8" width="226" height="196">
<rect y="-8" width="226" height="196" fill="#C4C4C4"/>
</mask>
<g mask="url(#mask0)">
<g opacity="0.1">
<path fill-rule="evenodd" clip-rule="evenodd" d="M72.9842 160.821L75.0646 180.584C120.799 177.11 160.563 152.272 184.401 116.027L167.934 104.914C147.304 136.422 112.733 157.978 72.9842 160.821ZM177.738 86.8232L195.89 94.9011C203.679 77.1833 208.003 57.5973 208.003 37.0014C208.003 15.1609 203.141 -5.54396 194.44 -24.0898L176.652 -15.2267C184.025 0.649147 188.141 18.3447 188.141 37.0014C188.141 54.7209 184.428 71.5733 177.738 86.8232ZM166.437 -33.1443C144.066 -65.7504 106.531 -87.1377 64.0014 -87.1377C-4.55873 -87.1377 -60.1377 -31.5587 -60.1377 37.0014C-60.1377 101.594 -10.8061 154.664 52.236 160.59L50.8451 180.41C-22.5186 173.765 -80 112.096 -80 37.0014C-80 -42.5284 -15.5284 -107 64.0014 -107C113.074 -107 156.414 -82.4535 182.412 -44.9689L166.437 -33.1443Z" fill="white"/>
<path fill-rule="evenodd" clip-rule="evenodd" d="M103.991 117.952C91.9589 123.981 78.3765 127.375 64.0014 127.375C49.377 127.375 35.573 123.862 23.3867 117.635L16.4147 130.805C30.6815 138.135 46.8584 142.271 64.0014 142.271C80.5522 142.271 96.2023 138.416 110.103 131.553L103.991 117.952ZM116.56 110.297L125.338 122.333C151.364 103.373 168.278 72.6591 168.278 37.9946C168.278 11.6791 158.53 -12.3597 142.449 -30.7078L130.018 -22.2615C144.53 -6.37067 153.382 14.7783 153.382 37.9946C153.382 67.7141 138.877 94.0458 116.56 110.297ZM118.96 -32.4974C103.8 -44.3332 84.7245 -51.3856 64.0014 -51.3856C14.6381 -51.3856 -25.3788 -11.3688 -25.3788 37.9946C-25.3788 67.4178 -11.1615 93.5205 10.7781 109.808L1.22799 121.268C-23.9818 102.234 -40.2755 72.017 -40.2755 37.9946C-40.2755 -19.596 6.4109 -66.2823 64.0014 -66.2823C88.7362 -66.2823 111.459 -57.6704 129.336 -43.2813L118.96 -32.4974Z" fill="white"/>
</g>
</g>
</svg>
