<svg xmlns="http://www.w3.org/2000/svg" viewBox="0 0 186.4 203.33">
  <defs>
    <style>
      .cls-1{fill:#fff}
    </style>
  </defs>
  <g id="Layer_2" data-name="Layer 2">
    <g id="Layer_1-2" data-name="Layer 1">
      <path d="M122.56 24.3a87.38 87.38 0 0 1-1.62 16.4c-.49 2.47-1.11 5-1.76 7.28L117 54.82a54.89 54.89 0 0 1-7.82 14.72 73.38 73.38 0 0 1-8.31 9.73l-5 4A71 71 0 0 1 83.42 91 77.27 77.27 0 0 1 75 94c-5.06 1.65-9.94 2.19-15.15 2.86-5.63.73-12 .47-17.74.49l-10.3-.51C26 96.18 26.15 96.7 19.39 95a54.49 54.49 0 0 1-10.53-3.72c-.88-.44-1.4-.75-2.22-1.22-1.42-.77-4.52-3.46-5.35-3.69-.46-.13-1.21-.31-1.21.15 0 4.21 5.73 13.53 9 17.17l4.78 5c.39.39.49.41.88.75l4.52 3.56c2.56 1.91 5.4 3.38 8.13 5 .73.44 1.4.73 2.15 1.11l1.57.75A114 114 0 0 0 56.52 128a49.27 49.27 0 0 0 5.63 1 51.71 51.71 0 0 1-.91 9.74 101.12 101.12 0 0 1-3.33 13.09A62.39 62.39 0 0 1 48.28 170a36 36 0 0 1-5.5 5.68c-.51.44-1 .78-1.52 1.19-6.64 5-9 5.71-17.38 5.71a46.94 46.94 0 0 1-12.7-2.09 23.24 23.24 0 0 1-5.06-2.35c-1.12-.65-3.62-2.54-4.62-2.77L0 176.76c.31 2.87 3.23 8.88 4.67 11.47 7 12.54 20.81 15.08 34.5 15.08a18.09 18.09 0 0 0 2.66-.06c2.32-.31 5.14-.31 7.48-.64a85.21 85.21 0 0 0 9.14-1.71c8.5-2.14 15.34-5.83 22.83-9.63l3.46-1.93c1.21-.73 2.24-1.24 3.43-2l6.82-4c1.19-.72 2.22-1.31 3.38-2l15.08-9.45c.59-.38 1-.72 1.63-1.08l16.65-10.56a90.49 90.49 0 0 1 12.37-6.59c.72-.31 1.18-.51 1.91-.8 4.31-1.7 8-3.3 13.11-3.3 7.31 0 11.34 2.4 14.9 8.18 2.22 3.59 3.46 8.68 4.37 13 .54 2.58.3 2.29 2.22 3.56l1.11-2.33c.28-.85.64-1.73.95-2.65.57-1.86 1.11-3.49 1.65-5.38 2.56-8.93 3.18-19.36-.59-28.11a21.84 21.84 0 0 0-5.84-8.24l-.28-.26c-.15-.13-.15-.15-.28-.25a26.49 26.49 0 0 0-9.63-5.35 9.91 9.91 0 0 0-1.45-.36c-12.75-3.18-24.81-1.11-36.87 3.69-1.19.47-6.4 2.82-7.2 2.89a29.23 29.23 0 0 1 1.91-3.51c.75-1.13 1.39-2.22 2-3.35a102.36 102.36 0 0 0 7-15c1.06-2.74 1.91-5.29 2.84-8.16a104.61 104.61 0 0 0 4.36-17.64c2.66-17.35 3.36-42.6-6.09-58.14a63.92 63.92 0 0 0-7.49-9.81c-1-1.14-2.27-2.07-3.33-3.15-.52-.54-.46-.75-1.39-.78a6.47 6.47 0 0 0-.26 3.52 84.57 84.57 0 0 1 .82 12.44z" class="cls-1"/>
      <path d="M51.69 18.16A11.39 11.39 0 0 1 50 15.47c-.54-1.32.77-1.52 1.86-2.12a36.1 36.1 0 0 1 6-2.5 32.75 32.75 0 0 1 30 5.6c2.68 2.2 4.15 2.87 2.91 4.39-2.45 3.07-2 2.14-5.55-.88a29.4 29.4 0 0 0-3.69-2.61c-7.15-4.33-18-4.75-25.64-1.11-.95.47-3.41 1.89-4.18 1.92zM27.88 40.9a43.32 43.32 0 0 0 8.55 25c.78 1 1.47 1.67 2.25 2.63 1.8 2.22 2.24 2.84-1.14 5.5L29 79.76a83.9 83.9 0 0 0-7.31 4.6c-.54.43-.95.67-1 1.49 2.07 1.09 6.09.73 8.83.73 4.44 0 8.26-.18 12.63-.18l12.26-.73a104.29 104.29 0 0 0 11.49-1.31c7.38-1.3 15.39-3.46 21.82-7.23a41.59 41.59 0 0 0 8.23-6.2c.31-.34.47-.52.8-.83.55-.54 1.14-1 1.63-1.62a43.11 43.11 0 0 0 4.13-5.61c6.38-10.66 8.37-21.09 5.09-33.41a42.17 42.17 0 0 0-6.38-12.93L95 9.71a51.32 51.32 0 0 0-7.8-5.19 39.44 39.44 0 0 0-28.28-3.25A41.07 41.07 0 0 0 48.1 5.61c-3.59 2.06-8.49 6-11 9.27-5.7 7.59-9.27 16.24-9.27 26z" class="cls-1"/>
    </g>
  </g>
</svg>
