<svg fill="#fff" id="Capa_1" data-name="Capa 1" xmlns="http://www.w3.org/2000/svg" viewBox="0 0 512 489.25"><defs><style>.cls-1{fill:#fff;}</style></defs><title>linkedin-logo</title><path id="LinkedIn" class="cls-1" d="M512,311.33V500.62H402.26V324c0-44.36-15.87-74.64-55.59-74.64-30.32,0-48.37,20.4-56.31,40.14-2.89,7.06-3.64,16.88-3.64,26.76V500.62H177s1.48-299.12,0-330.11H286.71V217.3c-.22.35-.51.73-.72,1.07h.72V217.3c14.58-22.46,40.63-54.55,98.92-54.55C457.86,162.75,512,209.94,512,311.33ZM62.12,11.38C24.56,11.38,0,36,0,68.4c0,31.69,23.85,57.07,60.66,57.07h.73c38.28,0,62.09-25.38,62.09-57.07C122.76,36,99.67,11.38,62.12,11.38ZM6.52,500.62H116.25V170.51H6.52Z" transform="translate(0 -11.38)"/></svg>
