<svg xmlns="http://www.w3.org/2000/svg" fill="#fff" stroke="#fff" data-name="Capa 1" viewBox="0 0 612 497.12">
  <path d="M612 58.82a250.68 250.68 0 0 1-72.09 19.74A126.08 126.08 0 0 0 595.1 9.18a253.14 253.14 0 0 1-79.78 30.48 125.64 125.64 0 0 0-213.93 114.46A356.45 356.45 0 0 1 42.64 22.95 125.69 125.69 0 0 0 81.5 190.56a125.55 125.55 0 0 1-56.87-15.76v1.57a125.67 125.67 0 0 0 100.69 123.1 127.09 127.09 0 0 1-33.08 4.4 120.54 120.54 0 0 1-23.63-2.31 125.6 125.6 0 0 0 117.25 87.19 251.93 251.93 0 0 1-155.92 53.61A266.58 266.58 0 0 1 0 440.63a354.82 354.82 0 0 0 192.44 56.49c231 0 357.19-191.29 357.19-357.19l-.42-16.25A250.81 250.81 0 0 0 612 58.82z" class="cls-1"/>
</svg>
